<?xml version="1.0" standalone="no"?>
<!DOCTYPE svg PUBLIC "-//W3C//DTD SVG 20010904//EN"
 "http://www.w3.org/TR/2001/REC-SVG-20010904/DTD/svg10.dtd">
<svg version="1.0" xmlns="http://www.w3.org/2000/svg"
 width="3095.000000pt" height="2001.000000pt" viewBox="0 0 3095.000000 2001.000000"
 preserveAspectRatio="xMidYMid meet">

<g transform="translate(0.000000,2001.000000) scale(0.100000,-0.100000)"
fill="#000000" stroke="none">
<path d="M21975 18210 c-1985 -53 -3546 -412 -4775 -1098 -927 -518 -1624
-1134 -2105 -1862 -592 -895 -931 -2141 -1035 -3805 -28 -453 -31 -848 -21
-2587 11 -1782 11 -1827 -25 -2228 -98 -1118 -356 -2027 -755 -2669 -543 -874
-1525 -1416 -3014 -1665 -854 -142 -2008 -185 -2880 -105 -1117 101 -2060 403
-2790 892 -648 434 -1092 1008 -1341 1731 -210 613 -329 1433 -364 2511 -6
192 -10 2313 -10 5588 l0 5277 -1430 0 -1431 0 4 -5457 c3 -4001 7 -5511 15
-5658 40 -679 81 -1088 157 -1551 176 -1079 485 -1952 933 -2639 787 -1207
2110 -2059 3887 -2503 788 -197 1571 -305 2635 -364 302 -17 1446 -17 1735 0
1258 72 2188 229 3069 519 419 137 663 237 1036 424 1040 522 1835 1189 2364
1984 142 213 218 344 322 560 366 756 605 1739 709 2905 49 558 48 501 55
3025 l6 2380 27 193 c176 1266 501 2099 1054 2700 385 419 1022 781 1760 1001
804 240 1723 353 2873 354 531 0 863 -20 1297 -79 1489 -200 2666 -810 3300
-1710 307 -436 488 -890 623 -1564 110 -548 169 -1131 191 -1890 6 -206 23
-2714 38 -5572 15 -2858 29 -5198 31 -5200 3 -2 640 -1 1415 2 l1410 5 -3 620
c-33 6616 -54 10034 -62 10260 -67 1819 -393 3209 -989 4220 -390 662 -946
1239 -1631 1690 -1151 759 -2672 1201 -4575 1330 -513 34 -1199 48 -1710 35z"/>
<path d="M7030 8770 l0 -4180 1425 0 1425 0 0 4180 0 4180 -1425 0 -1425 0 0
-4180z"/>
<path d="M18340 8850 l0 -1430 4178 2 4177 3 3 1428 2 1427 -4180 0 -4180 0 0
-1430z"/>
</g>
</svg>
